<svg xmlns="http://www.w3.org/2000/svg" viewBox="0 0 175.29 62"><defs><style>.cls-1{fill:#fff;fill-rule:evenodd}</style></defs><g id="Слой_2" data-name="Слой 2"><g id="Слой_1-2" data-name="Слой 1"><path class="cls-1" d="M28 0A31 31 0 0 0 0 17.67a18.92 18.92 0 0 1 7.19-5.93 24.53 24.53 0 0 1 10.36-2.21 19.17 19.17 0 0 1 11.1 3.21q4.68 3.21 4.68 9.54 0 12.84-18.39 12.84-1.65 0-6-.17 0 4.94 2.47 7.2a8.73 8.73 0 0 0 6.12 2.26q6.42 0 10-4.16a9 9 0 0 1 3.25 2.56A5.26 5.26 0 0 1 32 46.05q0 2.6-3.08 4.16a18 18 0 0 1-6 1.91 47.44 47.44 0 0 1-5.6.35q-9.54 0-15.62-5.25c-.16-.14-.3-.31-.46-.45A31 31 0 1 0 28 0z"/><path class="cls-1" d="M17.95 26.84a7.1 7.1 0 0 0 2.21-5.42 3.8 3.8 0 0 0-1-2.52 3 3 0 0 0-2.34-1.13 7 7 0 0 0-5.47 2.82Q9.05 23.41 9 28.87q2.43-.17 3.43-.3t2.83-.57a6.16 6.16 0 0 0 2.69-1.16z"/><path d="M95.55 26.4l6.21-21.24H97l-3.57 14h-.06L89 5.16h-4.37l-4.44 13.62h-.06L76.74 5.16h-5.1l6.3 21.24h4l4.68-14.7h.06l4.68 14.7zm11.7-6.09a15 15 0 0 1 .12-2 3.82 3.82 0 0 1 .53-1.55 2.71 2.71 0 0 1 1.15-1 4.78 4.78 0 0 1 2-.36 6.16 6.16 0 0 1 1 .08 6.84 6.84 0 0 1 .95.22v-4.09a3.88 3.88 0 0 0-.72-.12h-.78a4.32 4.32 0 0 0-2.49.67 5.53 5.53 0 0 0-1.71 2h-.06v-2.34h-4.5V26.4h4.5zM115 26.4h4.5V11.82H115zm2.25-16.56a2.61 2.61 0 0 0 2.61-2.61 2.61 2.61 0 0 0-5.22 0 2.61 2.61 0 0 0 2.61 2.61zm7 12.51a4.67 4.67 0 0 0 .4 2 3.58 3.58 0 0 0 1.13 1.36 4.78 4.78 0 0 0 1.68.77 8.66 8.66 0 0 0 2.1.24 14.4 14.4 0 0 0 1.59-.09 6.81 6.81 0 0 0 1.56-.36v-3.71a1.6 1.6 0 0 1-.89.34 7.76 7.76 0 0 1-.95.08 2.85 2.85 0 0 1-1.16-.2 1.36 1.36 0 0 1-.64-.55 2.2 2.2 0 0 1-.27-.85 9.09 9.09 0 0 1-.06-1.1v-4.86h4v-3.6h-4V7.5h-4.5v4.32h-2.88v3.6h2.88zm13-17.73a2.61 2.61 0 0 0-2.61 2.61 2.61 2.61 0 0 0 5.22 0 2.61 2.61 0 0 0-2.61-2.61zm2.25 7.2H135V26.4h4.5zm7.74 7.32a10.21 10.21 0 0 1 .09-1.38 3.43 3.43 0 0 1 .38-1.18 2.15 2.15 0 0 1 .82-.84 2.78 2.78 0 0 1 1.41-.32 1.94 1.94 0 0 1 2 1.29 4.12 4.12 0 0 1 .27 1.24v8.45h4.5v-8a16.67 16.67 0 0 0-.21-2.73 5.89 5.89 0 0 0-.8-2.19 4 4 0 0 0-1.53-1.48 6.2 6.2 0 0 0-2.76-.52 5.14 5.14 0 0 0-1.5.21 5.32 5.32 0 0 0-1.23.54 4.37 4.37 0 0 0-.93.75 3.64 3.64 0 0 0-.6.84h-.06v-2h-4.32V26.4h4.5zm23.88-7.32v1.92h-.06a4.67 4.67 0 0 0-.72-.79 5.25 5.25 0 0 0-1.08-.73 6.78 6.78 0 0 0-3.18-.75 5.92 5.92 0 0 0-2.79.64 6.63 6.63 0 0 0-2.08 1.7 7.71 7.71 0 0 0-1.32 2.43 8.77 8.77 0 0 0-.47 2.82 8.67 8.67 0 0 0 .51 3 7 7 0 0 0 1.46 2.38 6.55 6.55 0 0 0 2.29 1.56 7.51 7.51 0 0 0 2.94.56 6.19 6.19 0 0 0 2.18-.43 4.24 4.24 0 0 0 1.93-1.49h.06v1.41a3.53 3.53 0 0 1-1 2.57 4.08 4.08 0 0 1-3 1 6.21 6.21 0 0 1-2.53-.51 9.43 9.43 0 0 1-2.26-1.36l-2.49 3.72a8.69 8.69 0 0 0 3.48 1.7 17.08 17.08 0 0 0 3.84.43q4.26 0 6.34-2.14t2.09-6.29V11.82zm-.27 8.57a3.52 3.52 0 0 1-.76 1.14 3.9 3.9 0 0 1-1.16.8 3.5 3.5 0 0 1-2.84 0 4 4 0 0 1-1.14-.8 3.54 3.54 0 0 1 0-5 4 4 0 0 1 1.14-.8 3.5 3.5 0 0 1 2.84 0 3.91 3.91 0 0 1 1.16.8 3.56 3.56 0 0 1 .76 3.87zM84.4 48.45a6.89 6.89 0 0 0-1.83-.71l-1.83-.42a7.33 7.33 0 0 1-1.41-.45.84.84 0 0 1-.55-.79 1 1 0 0 1 .54-.93 2.45 2.45 0 0 1 1.11-.27A3.19 3.19 0 0 1 83 46.11l2.76-2.73a5.4 5.4 0 0 0-2.49-1.5 10.56 10.56 0 0 0-2.91-.42 9 9 0 0 0-2.25.28 6 6 0 0 0-2 .89 4.61 4.61 0 0 0-1.38 1.53 4.44 4.44 0 0 0-.53 2.22 3.89 3.89 0 0 0 .55 2.21 3.82 3.82 0 0 0 1.41 1.27 7.56 7.56 0 0 0 1.83.67l1.91.47a6.1 6.1 0 0 1 1.41.48.91.91 0 0 1 .56.85.83.83 0 0 1-.63.83 4.17 4.17 0 0 1-1.41.22 3.76 3.76 0 0 1-1.79-.4 4.53 4.53 0 0 1-1.39-1.18l-2.73 3a5.77 5.77 0 0 0 2.64 1.55 11.48 11.48 0 0 0 3.09.43 12.84 12.84 0 0 0 2.35-.24 6.77 6.77 0 0 0 2.16-.78 4.72 4.72 0 0 0 1.58-1.47 4.08 4.08 0 0 0 .63-2.29 3.89 3.89 0 0 0-.56-2.21 4.1 4.1 0 0 0-1.41-1.34zm16.92-4.91A5.91 5.91 0 0 0 99.16 42a7.2 7.2 0 0 0-2.83-.54 9.19 9.19 0 0 0-3.17.54 7.62 7.62 0 0 0-2.58 1.54A7.25 7.25 0 0 0 88.86 46a8.19 8.19 0 0 0 0 6.3 7.24 7.24 0 0 0 1.73 2.41 7.61 7.61 0 0 0 2.58 1.54 9.19 9.19 0 0 0 3.17.54 8.18 8.18 0 0 0 3.41-.79 7.18 7.18 0 0 0 2.73-2.13l-3.15-2.31A5 5 0 0 1 98 52.85a3.38 3.38 0 0 1-1.87.49 3.31 3.31 0 0 1-2.22-.76 3.56 3.56 0 0 1-1.17-2.05h10.44v-1.42a9.74 9.74 0 0 0-.48-3.15 7 7 0 0 0-1.38-2.41zm-8.6 3.92a2.86 2.86 0 0 1 .26-1 2.7 2.7 0 0 1 .63-.87 3.31 3.31 0 0 1 1-.61 3.38 3.38 0 0 1 1.32-.24 2.67 2.67 0 0 1 2 .81 2.61 2.61 0 0 1 .75 2zm21.93-6a4.32 4.32 0 0 0-2.49.67 5.53 5.53 0 0 0-1.71 2h-.06v-2.31h-4.5V56.4h4.5v-6.09a15 15 0 0 1 .12-2 3.82 3.82 0 0 1 .52-1.55 2.71 2.71 0 0 1 1.16-1 4.78 4.78 0 0 1 2-.36 6.16 6.16 0 0 1 1 .08 6.85 6.85 0 0 1 .95.22v-4.09a3.88 3.88 0 0 0-.72-.12zm10.53 10.26h-.06l-3.69-9.9h-4.86l6 14.58h4.77l5.76-14.58h-4.53zm9.66 4.68h4.5V41.82h-4.5zm2.25-21.78a2.61 2.61 0 1 0 1.84.77 2.51 2.51 0 0 0-1.83-.77zm13.14 10.8a2.74 2.74 0 0 1 1.29.32 2.53 2.53 0 0 1 .93.79l3-3.12A5.74 5.74 0 0 0 153 41.9a9.31 9.31 0 0 0-2.72-.43 9.19 9.19 0 0 0-3.16.54 7.62 7.62 0 0 0-2.58 1.54 7.25 7.25 0 0 0-1.77 2.45 8.19 8.19 0 0 0 0 6.3 7.24 7.24 0 0 0 1.72 2.41 7.61 7.61 0 0 0 2.58 1.54 9.19 9.19 0 0 0 3.16.54 9.31 9.31 0 0 0 2.72-.43 5.74 5.74 0 0 0 2.47-1.52l-3-3.12a3.93 3.93 0 0 1-.93.78 2.42 2.42 0 0 1-1.29.33 3.44 3.44 0 0 1-2.65-1 4.24 4.24 0 0 1 0-5.34 3.44 3.44 0 0 1 2.68-1.07zm19.45-1.87a5.91 5.91 0 0 0-2.15-1.55 7.2 7.2 0 0 0-2.84-.54 9.19 9.19 0 0 0-3.16.54 7.62 7.62 0 0 0-2.58 1.54 7.25 7.25 0 0 0-1.73 2.46 8.19 8.19 0 0 0 0 6.3 7.24 7.24 0 0 0 1.72 2.41 7.61 7.61 0 0 0 2.58 1.54 9.19 9.19 0 0 0 3.16.54 8.18 8.18 0 0 0 3.42-.75 7.18 7.18 0 0 0 2.73-2.13l-3.15-2.31a5 5 0 0 1-1.33 1.27 3.38 3.38 0 0 1-1.87.49 3.31 3.31 0 0 1-2.22-.76 3.56 3.56 0 0 1-1.17-2.05h10.44v-1.44a9.74 9.74 0 0 0-.48-3.15 7 7 0 0 0-1.36-2.41zm-8.59 3.92a2.86 2.86 0 0 1 .26-1 2.7 2.7 0 0 1 .63-.87 3.31 3.31 0 0 1 1-.61 3.38 3.38 0 0 1 1.32-.24 2.67 2.67 0 0 1 2 .81 2.61 2.61 0 0 1 .75 2z" fill="#fff"/></g></g></svg>