<svg xmlns="http://www.w3.org/2000/svg" viewBox="0 0 290 316"><defs/><path fill="#fff" d="M16 303l4-17-12-5-8 13s5 12 0 22c0 0 6-11 16-13zm-8-8a3 3 0 0 1 4 1 3 3 0 0 1-2 4 3 3 0 0 1-3-1 3 3 0 0 1 1-4zm130-188c-34 28-77 84-115 150l-6 12 7 3 3-10c20-36 74-129 172-191a634 634 0 0 0 73-52c-9 7-26 16-35 22-25 16-56 31-99 66z"/><path fill="#fff" d="M19 205c-8 27-8 48-5 53h5c13-26 74-121 112-151 39-31 70-49 96-62a190 190 0 0 0 26-17l29-25-26 17 12-18-22 23 14-25c-34 3-65 20-65 20-13 15-23 39-23 39-1-12 7-30 7-30l-28 16c-11 9-15 33-15 33-2-9 5-28 5-28-32 19-54 50-54 50-16 31-3 55-8 49s-4-27-4-27c-33 32-37 48-37 48-5 13-10 50-10 50-4-3 0-22 0-22a54 54 0 0 0-5 33c-3-2-4-26-4-26z"/><path fill="#fff" d="M282 14a345 345 0 0 1-29 24c-26 21-51 37-51 37A490 490 0 0 0 33 259h9c4-3 9-5 30-11 27-8 43-24 43-24s-25 14-36 13-27 2-27 2-6-2 23-7 77-36 77-36-18 7-27 6H96c14-3 27-1 48-9l20-7c23-8 33-33 33-33-4 2-35 6-48 2s-36 0-36 0c21-7 26-4 31-4s22 1 55-11 42-25 42-25l-22 3c15-2 31-12 31-12-10 3-26 4-26 4 19-4 29-10 29-10 17-13 21-33 21-33-24 9-44 5-44 5 34-2 43-11 48-13s7-11 7-11c-17 7-37 8-37 8 21-4 39-14 39-14V31c-8 5-22 8-22 8l22-14c1-7-5-11-5-11zM9 277l13 5 3-6-13-5-3 6zm147-5c-44 21-86 35-141 37-5 0-5 5 0 5 49-1 91-12 131-31 44-21 85-38 141-44 5 0 3-5-2-5-50 5-90 19-129 38z"/></svg>